<?xml version="1.0" encoding="UTF-8"?>
<svg xmlns="http://www.w3.org/2000/svg" xmlns:xlink="http://www.w3.org/1999/xlink" width="187px" height="250px" viewBox="0 0 187 251" version="1.1">
<g id="surface1">
<path style=" stroke:none;fill-rule:nonzero;fill:rgb(100%,100%,100%);fill-opacity:1;" d="M 178.820312 231.464844 C 178.820312 237.835938 173.851562 242.804688 167.476562 242.804688 L 19.523438 242.804688 C 13.148438 242.804688 8.179688 237.835938 8.179688 231.464844 L 8.179688 19.585938 C 8.179688 13.21875 13.148438 8.25 19.523438 8.25 L 167.476562 8.25 C 173.851562 8.25 178.820312 13.21875 178.820312 19.585938 C 178.820312 19.585938 178.820312 231.464844 178.820312 231.464844 Z M 178.820312 231.464844 "/>
<path style=" stroke:none;fill-rule:nonzero;fill:rgb(77.64706%,62.7451%,18.431373%);fill-opacity:1;" d="M 178.820312 231.464844 C 178.820312 237.835938 173.851562 242.804688 167.476562 242.804688 L 19.523438 242.804688 C 13.148438 242.804688 8.179688 237.835938 8.179688 231.464844 L 8.179688 19.585938 C 8.179688 13.21875 13.148438 8.25 19.523438 8.25 L 167.476562 8.25 C 173.851562 8.25 178.820312 13.21875 178.820312 19.585938 C 178.820312 19.585938 178.820312 231.464844 178.820312 231.464844 Z M 187 19.585938 C 187 9.15625 178.363281 0.0742188 167.476562 0.0742188 L 19.523438 0.0742188 C 8.632812 0.0742188 0 8.699219 0 19.585938 L 0 231.414062 C 0 242.300781 8.632812 250.933594 19.523438 250.933594 L 167.476562 250.933594 C 177.914062 250.933594 187 242.300781 187 231.414062 C 187 231.464844 187 19.585938 187 19.585938 Z M 187 19.585938 "/>
<path style=" stroke:none;fill-rule:nonzero;fill:rgb(13.725491%,12.156863%,12.54902%);fill-opacity:1;" d="M 22.234375 204.671875 L 24.488281 213.753906 L 19.976562 213.753906 Z M 13.652344 222.835938 L 17.714844 222.835938 L 19.070312 218.316406 L 25.894531 218.316406 L 27.25 222.835938 L 31.316406 222.835938 L 24.488281 199.707031 L 19.976562 199.707031 Z M 13.652344 222.835938 "/>
<path style=" stroke:none;fill-rule:nonzero;fill:rgb(13.725491%,12.156863%,12.54902%);fill-opacity:1;" d="M 33.625 199.253906 L 37.691406 199.253906 L 37.691406 208.785156 L 44.964844 199.253906 L 49.9375 199.253906 L 42.207031 208.785156 L 50.386719 222.382812 L 45.421875 222.382812 L 39.496094 212.398438 L 37.691406 214.660156 L 37.691406 222.382812 L 33.625 222.382812 Z M 33.625 199.253906 "/>
<path style=" stroke:none;fill-rule:nonzero;fill:rgb(13.725491%,12.156863%,12.54902%);fill-opacity:1;" d="M 55.855469 222.835938 L 51.792969 222.835938 L 51.792969 199.707031 L 55.855469 199.707031 Z M 55.855469 222.835938 "/>
<path style=" stroke:none;fill-rule:nonzero;fill:rgb(13.725491%,12.156863%,12.54902%);fill-opacity:1;" d="M 61.730469 213.753906 L 61.730469 214.203125 C 61.730469 216.011719 61.730469 217.367188 62.179688 217.816406 C 62.636719 218.722656 63.085938 218.722656 63.992188 218.722656 C 64.890625 218.722656 65.347656 218.273438 65.796875 217.367188 C 65.796875 216.914062 66.246094 216.011719 66.246094 215.109375 L 66.246094 198.804688 L 70.3125 198.804688 L 70.3125 215.109375 C 70.3125 216.914062 69.859375 218.722656 69.410156 219.625 C 68.507812 221.429688 66.699219 222.335938 64.441406 222.335938 C 62.179688 222.335938 60.375 221.429688 59.472656 220.078125 C 58.566406 218.722656 58.117188 216.460938 58.117188 213.703125 L 58.117188 213.253906 L 61.730469 213.253906 Z M 61.730469 213.753906 "/>
<path style=" stroke:none;fill-rule:nonzero;fill:rgb(13.725491%,12.156863%,12.54902%);fill-opacity:1;" d="M 93.496094 206.480469 C 93.046875 204.671875 92.597656 203.769531 91.242188 203.316406 C 90.789062 202.867188 89.886719 202.867188 88.984375 202.867188 C 87.628906 202.867188 86.273438 203.769531 85.367188 205.125 C 84.46875 206.480469 84.011719 208.734375 84.011719 211.496094 C 84.011719 214.203125 84.46875 216.460938 85.367188 217.417969 C 86.273438 218.773438 87.628906 219.222656 88.984375 219.222656 C 90.335938 219.222656 91.242188 218.773438 92.140625 217.867188 C 93.046875 216.964844 93.496094 215.609375 93.496094 214.253906 L 89.433594 214.253906 L 89.433594 210.140625 L 97.164062 210.140625 L 97.164062 222.835938 L 94.453125 222.835938 L 94.003906 220.128906 C 93.097656 221.027344 92.648438 221.929688 92.195312 222.382812 C 91.289062 223.285156 89.933594 223.734375 88.578125 223.734375 C 86.324219 223.734375 84.0625 222.835938 82.65625 220.578125 C 80.851562 218.316406 80.398438 215.609375 80.398438 211.949219 C 80.398438 208.335938 81.304688 205.125 82.65625 202.867188 C 84.46875 200.609375 86.722656 199.707031 89.484375 199.707031 C 91.742188 199.707031 93.546875 200.609375 95.40625 201.960938 C 96.757812 203.316406 97.664062 205.125 97.664062 207.378906 L 93.597656 207.378906 L 93.597656 206.480469 Z M 93.496094 206.480469 "/>
<path style=" stroke:none;fill-rule:nonzero;fill:rgb(13.725491%,12.156863%,12.54902%);fill-opacity:1;" d="M 109.355469 203.316406 C 110.261719 203.316406 110.710938 203.316406 111.167969 203.769531 C 112.066406 204.222656 112.066406 205.125 112.066406 206.480469 C 112.066406 207.835938 111.617188 208.734375 111.167969 209.1875 C 110.710938 209.640625 110.261719 209.640625 109.355469 209.640625 L 105.292969 209.640625 L 105.292969 203.269531 C 105.292969 203.316406 109.355469 203.316406 109.355469 203.316406 Z M 110.3125 199.253906 L 101.226562 199.253906 L 101.226562 222.382812 L 105.292969 222.382812 L 105.292969 213.304688 L 108.90625 213.304688 C 109.8125 213.304688 110.710938 213.753906 111.167969 214.203125 C 111.617188 214.660156 111.617188 215.558594 111.617188 217.367188 L 111.617188 219.625 C 111.617188 220.078125 111.617188 220.980469 111.617188 221.429688 C 111.617188 221.878906 111.617188 222.335938 112.066406 222.785156 L 116.585938 222.785156 L 116.585938 222.335938 C 116.132812 221.878906 116.132812 221.429688 115.683594 220.980469 C 115.683594 220.527344 115.683594 220.078125 115.683594 218.722656 L 115.683594 217.367188 C 115.683594 215.558594 115.683594 214.660156 115.230469 213.753906 C 114.777344 212.847656 114.328125 212.398438 113.421875 211.949219 C 114.328125 211.496094 115.230469 210.59375 115.683594 209.691406 C 116.132812 208.785156 116.132812 207.429688 116.132812 206.53125 C 116.132812 205.625 116.132812 204.722656 115.683594 204.273438 C 115.683594 203.367188 115.230469 202.917969 114.777344 202.460938 C 114.328125 201.5625 113.878906 201.109375 112.972656 200.660156 C 112.566406 199.707031 111.667969 199.253906 110.3125 199.253906 Z M 110.3125 199.253906 "/>
<path style=" stroke:none;fill-rule:nonzero;fill:rgb(13.725491%,12.156863%,12.54902%);fill-opacity:1;" d="M 128.429688 219.222656 C 127.074219 219.222656 125.71875 218.316406 124.820312 216.964844 C 123.914062 215.609375 123.464844 213.355469 123.464844 211.042969 C 123.464844 208.335938 123.914062 206.53125 124.820312 205.125 C 125.71875 203.769531 127.074219 202.867188 128.429688 202.867188 C 129.78125 202.867188 131.136719 203.769531 132.042969 205.125 C 132.949219 206.480469 133.398438 208.734375 133.398438 211.042969 C 133.398438 213.753906 132.949219 215.558594 132.042969 216.964844 C 131.136719 218.316406 129.78125 219.222656 128.429688 219.222656 Z M 137.0625 211.042969 C 137.0625 206.980469 136.160156 203.769531 134.355469 201.511719 C 133 199.707031 130.738281 198.804688 128.429688 198.804688 C 125.71875 198.804688 123.914062 199.707031 122.058594 201.511719 C 120.246094 203.769531 119.347656 206.929688 119.347656 211.042969 C 119.347656 215.109375 120.246094 218.316406 122.058594 220.578125 C 123.414062 222.382812 125.667969 223.285156 128.429688 223.285156 C 131.1875 223.285156 132.949219 222.382812 134.355469 220.578125 C 136.160156 218.316406 137.0625 215.109375 137.0625 211.042969 Z M 137.0625 211.042969 "/>
<path style=" stroke:none;fill-rule:nonzero;fill:rgb(13.725491%,12.156863%,12.54902%);fill-opacity:1;" d="M 140.222656 199.253906 L 144.289062 199.253906 L 144.289062 213.304688 C 144.289062 214.660156 144.289062 216.011719 144.738281 216.914062 C 145.191406 218.273438 146.097656 218.722656 147.902344 218.722656 C 149.257812 218.722656 150.613281 218.273438 151.0625 216.914062 C 151.519531 216.011719 151.519531 215.109375 151.519531 213.304688 L 151.519531 199.253906 L 155.582031 199.253906 L 155.582031 213.753906 C 155.582031 216.011719 155.128906 218.273438 154.675781 219.671875 C 153.324219 222.382812 151.519531 223.285156 148.300781 223.285156 C 145.089844 223.285156 142.882812 221.929688 141.929688 219.671875 C 141.476562 218.316406 141.027344 216.511719 141.027344 213.753906 L 141.027344 199.253906 Z M 140.222656 199.253906 "/>
<path style=" stroke:none;fill-rule:nonzero;fill:rgb(13.725491%,12.156863%,12.54902%);fill-opacity:1;" d="M 168.828125 206.929688 C 168.828125 208.285156 168.378906 209.1875 167.925781 209.640625 C 167.925781 210.09375 167.023438 210.09375 166.121094 210.09375 L 162.503906 210.09375 L 162.503906 203.269531 L 166.121094 203.269531 C 167.023438 203.269531 167.476562 203.71875 167.925781 204.171875 C 168.828125 204.671875 168.828125 205.574219 168.828125 206.929688 Z M 172.894531 206.929688 C 172.894531 204.222656 172.445312 202.417969 171.089844 201.511719 C 170.183594 200.15625 168.378906 199.707031 166.570312 199.707031 L 158.390625 199.707031 L 158.390625 222.835938 L 162.460938 222.835938 L 162.460938 214.660156 L 166.523438 214.660156 C 168.328125 214.660156 170.132812 214.203125 171.039062 212.847656 C 172.445312 211.496094 172.894531 209.691406 172.894531 206.929688 Z M 172.894531 206.929688 "/>
<path style=" stroke:none;fill-rule:nonzero;fill:rgb(13.725491%,12.156863%,12.54902%);fill-opacity:1;" d="M 93.953125 166.140625 C 93.953125 166.140625 63.992188 206.078125 14.105469 160.722656 L 14.105469 23.703125 C 14.105469 23.703125 12.75 14.625 21.832031 14.625 L 165.671875 14.625 C 165.671875 14.625 173.394531 13.269531 173.394531 23.703125 L 173.394531 160.269531 C 173.347656 160.671875 131.59375 206.480469 93.953125 166.140625 Z M 93.953125 166.140625 "/>
<path style=" stroke:none;fill-rule:nonzero;fill:rgb(77.64706%,62.7451%,18.431373%);fill-opacity:1;" d="M 93.046875 83.105469 C 93.046875 83.105469 90.335938 74.925781 86.222656 72.671875 C 82.105469 70.414062 78.492188 59.976562 83.0625 49.992188 C 87.578125 40.007812 93.953125 29.574219 93.953125 29.574219 C 93.953125 29.574219 106.648438 48.183594 107.101562 58.621094 C 107.550781 69.058594 102.132812 72.21875 99.820312 74.925781 C 97.5625 77.636719 94.851562 78.992188 94.851562 83.558594 L 94.851562 103.074219 C 94.851562 103.074219 100.777344 88.125 108.003906 83.105469 C 112.972656 79.496094 120.703125 76.28125 132.042969 75.832031 C 140.671875 75.382812 147.453125 72.21875 147.453125 72.21875 C 147.453125 72.21875 142.933594 102.167969 108.40625 103.980469 C 105.242188 103.980469 97.515625 103.074219 94.804688 107.136719 L 95.257812 149.785156 C 95.257812 149.785156 99.769531 141.609375 101.175781 136.640625 C 102.988281 131.671875 111.167969 110.800781 140.222656 110.347656 C 146.144531 110.347656 162.910156 109.898438 162.910156 109.898438 C 162.910156 109.898438 154.277344 133.480469 127.527344 145.722656 C 124.363281 147.078125 117.089844 148.433594 108.90625 147.078125 C 103.488281 146.171875 96.207031 149.785156 97.113281 155.703125 C 98.015625 161.121094 109.355469 174.320312 132.042969 171.558594 C 154.726562 168.851562 170.132812 148.882812 170.132812 148.882812 L 170.132812 160.21875 C 170.132812 160.21875 148.351562 183.351562 118.839844 179.738281 C 115.230469 179.289062 102.53125 175.675781 92.996094 162.476562 C 92.996094 162.476562 82.105469 183.351562 51.238281 179.289062 C 44.414062 178.382812 21.277344 169.300781 15.410156 157.964844 L 15.410156 148.433594 C 15.410156 148.433594 29.914062 170.65625 59.421875 171.558594 C 87.578125 172.464844 88.929688 155.253906 88.929688 155.253906 C 88.929688 155.253906 91.640625 147.527344 74.882812 147.527344 C 57.617188 147.976562 40.402344 140.253906 22.683594 108.949219 C 22.683594 108.949219 28.605469 110.300781 42.207031 110.300781 C 55.355469 110.300781 80.300781 112.105469 90.742188 148.882812 L 90.742188 108.949219 C 90.742188 108.949219 91.191406 102.125 82.105469 103.980469 C 72.570312 105.332031 48.082031 103.523438 37.191406 70.863281 C 37.191406 70.863281 43.109375 74.476562 55.355469 75.382812 C 67.601562 76.28125 85.773438 82.65625 91.191406 103.980469 Z M 93.046875 83.105469 "/>
<path style=" stroke:none;fill-rule:nonzero;fill:rgb(13.725491%,12.156863%,12.54902%);fill-opacity:1;" d="M 87.578125 102.167969 L 80.75 97.65625 C 80.75 97.65625 75.78125 100.816406 72.121094 101.71875 C 72.121094 101.71875 78.492188 98.105469 79.394531 96.300781 L 70.3125 92.6875 C 70.3125 92.6875 66.246094 96.300781 62.128906 96.300781 C 62.128906 96.300781 68.054688 94.042969 68.957031 91.785156 L 63.035156 89.074219 C 63.035156 89.074219 57.113281 91.785156 53.5 91.332031 C 53.5 91.332031 61.230469 89.53125 61.679688 88.175781 L 55.757812 85.011719 C 55.757812 85.011719 52.144531 85.464844 48.480469 85.011719 L 53.902344 84.113281 L 47.078125 79.144531 L 54.804688 83.207031 L 53.449219 78.695312 L 56.613281 84.113281 L 64.339844 87.71875 L 62.984375 83.65625 C 62.984375 83.65625 65.242188 87.269531 65.695312 88.175781 L 72.972656 91.785156 C 72.972656 91.785156 72.070312 84.511719 68.453125 81.351562 C 68.453125 81.351562 73.425781 84.964844 74.378906 92.238281 C 74.378906 92.238281 83.460938 96.300781 85.269531 97.65625 C 84.816406 96.75 83.011719 90.382812 79.847656 88.125 C 79.847656 88.125 84.816406 91.738281 86.222656 98.105469 L 88.929688 100.816406 Z M 87.578125 102.167969 "/>
<path style=" stroke:none;fill-rule:nonzero;fill:rgb(13.725491%,12.156863%,12.54902%);fill-opacity:1;" d="M 93.953125 79.945312 L 93.496094 74.027344 C 93.496094 74.027344 86.671875 71.316406 84.417969 66.75 C 84.417969 66.75 91.242188 72.167969 93.046875 72.167969 L 93.046875 63.539062 C 93.046875 63.539062 88.53125 60.378906 85.773438 56.714844 C 85.773438 56.714844 90.742188 60.777344 92.597656 61.683594 L 92.140625 53.503906 C 92.140625 53.503906 88.078125 49.441406 87.628906 46.683594 C 87.628906 46.683594 91.242188 50.746094 93.046875 52.101562 L 93.496094 43.472656 C 93.496094 43.472656 91.242188 40.761719 90.335938 39.410156 L 93.496094 42.117188 L 93.496094 36.195312 L 94.402344 42.566406 L 98.46875 39.410156 L 94.402344 43.921875 L 94.402344 51.195312 C 94.402344 51.195312 99.371094 48.035156 100.324219 46.683594 C 100.324219 46.683594 96.257812 51.648438 94.402344 53.054688 L 94.402344 62.132812 C 94.402344 62.132812 99.371094 58.523438 100.777344 56.714844 C 100.777344 56.714844 95.808594 62.632812 94.402344 64.445312 L 94.402344 72.671875 C 94.402344 72.671875 98.921875 71.769531 100.324219 69.507812 C 100.324219 69.507812 96.257812 73.121094 94.402344 74.476562 L 94.851562 78.992188 C 94.851562 79.496094 94.402344 80.851562 93.953125 79.945312 Z M 93.953125 79.945312 "/>
<path style=" stroke:none;fill-rule:nonzero;fill:rgb(13.725491%,12.156863%,12.54902%);fill-opacity:1;" d="M 88.078125 149.332031 C 88.078125 149.332031 85.824219 145.269531 82.15625 142.960938 C 82.15625 142.960938 78.09375 147.027344 68.558594 145.671875 C 68.558594 145.671875 79.449219 145.671875 81.707031 141.609375 L 75.332031 136.191406 C 75.332031 136.191406 73.070312 140.703125 56.710938 139.347656 C 56.710938 139.347656 70.765625 138.898438 74.425781 134.835938 L 65.347656 130.765625 C 65.347656 130.765625 59.421875 133.480469 54 134.382812 C 54 134.382812 62.179688 130.765625 63.085938 129.867188 C 63.085938 129.867188 49.484375 124.898438 46.777344 124.449219 L 38.597656 126.253906 L 45.421875 123.546875 L 37.242188 119.929688 L 32.269531 119.929688 L 35.429688 118.578125 L 30.011719 114.964844 L 35.933594 117.675781 L 35.480469 114.964844 L 37.292969 118.578125 L 47.277344 123.09375 C 47.277344 123.09375 45.472656 117.171875 42.757812 114.460938 C 42.757812 114.460938 47.726562 118.527344 48.183594 123.546875 L 59.972656 127.609375 L 55.90625 119.429688 L 61.328125 128.058594 C 61.328125 128.058594 70.863281 131.222656 73.121094 132.578125 C 73.121094 132.578125 71.316406 124.847656 70.863281 123.042969 C 70.863281 123.042969 74.476562 130.765625 74.925781 133.480469 L 81.753906 138.898438 L 80.851562 132.976562 C 80.851562 132.976562 83.109375 140.253906 83.109375 141.609375 C 83.109375 141.609375 88.53125 147.027344 89.035156 147.976562 C 89.433594 149.332031 88.984375 149.785156 88.078125 149.332031 Z M 88.078125 149.332031 "/>
<path style=" stroke:none;fill-rule:nonzero;fill:rgb(13.725491%,12.156863%,12.54902%);fill-opacity:1;" d="M 99.421875 102.167969 L 106.25 97.65625 C 106.25 97.65625 111.214844 100.816406 114.878906 101.71875 C 114.878906 101.71875 108.503906 98.105469 107.605469 96.300781 L 116.683594 92.6875 C 116.683594 92.6875 120.75 96.300781 124.863281 96.300781 C 124.863281 96.300781 118.945312 94.042969 118.039062 91.785156 L 123.964844 89.074219 C 123.964844 89.074219 129.886719 91.785156 133.5 91.332031 C 133.5 91.332031 125.769531 89.53125 125.320312 88.175781 L 131.238281 85.011719 C 131.238281 85.011719 134.855469 85.464844 138.515625 85.011719 L 133.097656 84.113281 L 139.921875 79.144531 L 132.191406 83.207031 L 133.550781 78.695312 L 130.386719 84.613281 L 122.65625 88.226562 L 124.011719 84.15625 C 124.011719 84.15625 121.757812 87.769531 121.300781 88.675781 L 114.023438 92.289062 C 114.023438 92.289062 114.929688 85.011719 118.546875 81.851562 C 118.546875 81.851562 113.574219 85.464844 112.621094 92.738281 C 112.621094 92.738281 103.539062 96.804688 101.730469 98.15625 C 102.183594 97.253906 103.988281 90.882812 107.148438 88.625 C 107.148438 88.625 102.183594 92.238281 100.777344 98.605469 L 98.519531 101.769531 Z M 99.421875 102.167969 "/>
<path style=" stroke:none;fill-rule:nonzero;fill:rgb(13.725491%,12.156863%,12.54902%);fill-opacity:1;" d="M 98.921875 149.332031 C 98.921875 149.332031 101.175781 145.269531 104.84375 142.960938 C 104.84375 142.960938 108.90625 147.027344 118.441406 145.671875 C 118.441406 145.671875 107.550781 145.671875 105.292969 141.609375 L 111.667969 136.191406 C 111.667969 136.191406 113.921875 140.703125 130.285156 139.347656 C 130.285156 139.347656 116.234375 138.898438 112.566406 134.835938 L 121.652344 130.765625 C 121.652344 130.765625 127.574219 133.480469 133 134.382812 C 133 134.382812 124.820312 130.765625 123.914062 129.867188 C 123.914062 129.867188 137.511719 124.898438 140.222656 124.449219 L 148.402344 126.253906 L 142.027344 123.996094 L 150.207031 120.386719 L 155.179688 120.386719 L 151.5625 119.480469 L 156.988281 115.867188 L 151.0625 118.578125 L 151.519531 115.867188 L 149.707031 119.480469 L 139.722656 123.996094 C 139.722656 123.996094 141.527344 118.074219 144.238281 115.367188 C 144.238281 115.367188 139.273438 119.429688 138.816406 124.449219 L 127.023438 128.511719 L 131.09375 120.335938 L 125.667969 128.964844 C 125.667969 128.964844 116.132812 132.125 113.878906 133.480469 C 113.878906 133.480469 115.683594 125.753906 116.132812 123.949219 C 116.132812 123.949219 112.523438 131.671875 112.066406 134.382812 L 105.242188 139.800781 L 106.144531 132.976562 C 106.144531 132.976562 103.886719 140.253906 103.886719 141.609375 C 103.886719 141.609375 98.46875 147.027344 97.964844 147.976562 C 98.015625 149.332031 98.46875 149.785156 98.921875 149.332031 Z M 98.921875 149.332031 "/>
</g>
</svg>
